<?xml version="1.0" encoding="utf-8"?>
<!-- Generator: Adobe Illustrator 27.5.0, SVG Export Plug-In . SVG Version: 6.00 Build 0)  -->
<svg version="1.1" xmlns="http://www.w3.org/2000/svg" xmlns:xlink="http://www.w3.org/1999/xlink" x="0px" y="0px"
	 viewBox="0 0 750 500" style="enable-background:new 0 0 750 500;" xml:space="preserve">
<g id="BACKGROUND">
	<rect y="0.078" style="fill:#FFFFFF;" width="750" height="500"/>
</g>
<g id="OBJECTS">
	<g id="BACK">
		<path style="fill:#EAF6F9;" d="M52.836,69.575L69.94,409.773c0.359,7.137,6.165,12.787,13.309,12.95l598.236,0.682
			c7.421,0.17,13.615-5.625,13.938-13.041l15.101-356.267c0.344-7.89-6.064-14.421-13.958-14.229L66.125,55.256
			C58.457,55.443,52.451,61.915,52.836,69.575z"/>
		<path style="fill:#FFFFFF;" d="M672.324,89.134l-8.25,2.789c-0.005,0.002-0.008,0.007-0.007,0.011l1.508,8.577
			c0.002,0.013-0.016,0.017-0.02,0.005l-2.789-8.25c-0.002-0.005-0.007-0.008-0.012-0.007l-8.577,1.508
			c-0.013,0.002-0.017-0.016-0.005-0.02l8.25-2.788c0.005-0.002,0.008-0.007,0.007-0.012l-1.508-8.577
			c-0.002-0.012,0.016-0.017,0.02-0.005l2.789,8.25c0.002,0.005,0.007,0.008,0.012,0.007l8.577-1.508
			C672.332,89.112,672.336,89.13,672.324,89.134z"/>
		<path style="fill:#BEDEE5;" d="M413.756,126.669l-8.25,2.789c-0.005,0.002-0.008,0.007-0.007,0.012l1.508,8.577
			c0.002,0.013-0.016,0.017-0.02,0.005l-2.789-8.25c-0.002-0.005-0.007-0.008-0.012-0.007l-8.577,1.508
			c-0.012,0.002-0.017-0.016-0.005-0.02l8.25-2.789c0.005-0.002,0.008-0.007,0.007-0.012l-1.508-8.577
			c-0.002-0.013,0.016-0.017,0.02-0.005l2.789,8.25c0.002,0.005,0.007,0.008,0.012,0.007l8.577-1.508
			C413.764,126.647,413.768,126.665,413.756,126.669z"/>
		<path style="fill:#BEDEE5;" d="M569.233,52.07l-12.776,4.318c-0.008,0.003-0.012,0.01-0.011,0.018l2.336,13.282
			c0.003,0.02-0.025,0.027-0.031,0.008l-4.318-12.776c-0.003-0.007-0.01-0.012-0.018-0.011l-13.282,2.336
			c-0.019,0.003-0.027-0.025-0.008-0.031l12.776-4.318c0.008-0.003,0.012-0.01,0.011-0.018l-2.336-13.282
			c-0.003-0.019,0.025-0.027,0.031-0.008l4.318,12.776c0.003,0.007,0.01,0.012,0.018,0.011l13.282-2.335
			C569.244,52.036,569.251,52.064,569.233,52.07z"/>
		<path style="fill:#BEDEE5;" d="M173.269,52.07l-12.776,4.318c-0.008,0.003-0.012,0.01-0.011,0.018l2.336,13.282
			c0.003,0.02-0.025,0.027-0.031,0.008l-4.318-12.776c-0.003-0.007-0.01-0.012-0.018-0.011l-13.282,2.336
			c-0.02,0.003-0.027-0.025-0.008-0.031l12.776-4.318c0.008-0.003,0.012-0.01,0.011-0.018l-2.336-13.282
			c-0.003-0.019,0.025-0.027,0.031-0.008l4.318,12.776c0.003,0.007,0.01,0.012,0.018,0.011l13.282-2.335
			C173.28,52.036,173.287,52.064,173.269,52.07z"/>
		<path style="fill:#BEDEE5;" d="M297.222,90.764l-6.845,2.314c-0.004,0.001-0.007,0.005-0.006,0.01l1.251,7.117
			c0.002,0.01-0.013,0.014-0.017,0.004l-2.314-6.845c-0.001-0.004-0.005-0.007-0.01-0.006l-7.116,1.251
			c-0.011,0.002-0.014-0.013-0.004-0.017l6.845-2.314c0.004-0.001,0.007-0.005,0.006-0.01l-1.251-7.117
			c-0.002-0.01,0.013-0.014,0.017-0.004l2.314,6.845c0.001,0.004,0.005,0.007,0.01,0.006l7.117-1.251
			C297.228,90.746,297.232,90.761,297.222,90.764z"/>
		<path style="fill:#BEDEE5;" d="M110.645,320.853l-6.845,2.314c-0.004,0.001-0.006,0.005-0.006,0.01l1.251,7.117
			c0.002,0.01-0.013,0.014-0.017,0.004l-2.314-6.845c-0.001-0.004-0.005-0.006-0.01-0.006l-7.117,1.251
			c-0.01,0.002-0.014-0.013-0.004-0.017l6.845-2.314c0.004-0.001,0.006-0.006,0.006-0.01l-1.251-7.117
			c-0.002-0.01,0.013-0.014,0.017-0.004l2.314,6.845c0.001,0.004,0.006,0.006,0.01,0.006l7.117-1.251
			C110.651,320.835,110.655,320.85,110.645,320.853z"/>
		<path style="fill:#FFFFFF;" d="M87.573,93.778l-6.845,2.314c-0.004,0.001-0.006,0.006-0.006,0.01l1.251,7.117
			c0.002,0.011-0.013,0.014-0.017,0.004l-2.314-6.845c-0.001-0.004-0.005-0.006-0.01-0.006l-7.117,1.251
			c-0.01,0.002-0.014-0.013-0.004-0.016l6.845-2.314c0.004-0.001,0.006-0.005,0.006-0.01l-1.251-7.117
			c-0.002-0.01,0.013-0.014,0.017-0.004l2.314,6.845c0.001,0.004,0.006,0.006,0.01,0.006l7.117-1.251
			C87.579,93.759,87.583,93.774,87.573,93.778z"/>
		<path style="fill:#BEDEE5;" d="M690.8,65.121l-3.426,1.158c-0.002,0.001-0.003,0.003-0.003,0.005l0.626,3.562
			c0.001,0.005-0.007,0.007-0.008,0.002l-1.158-3.426c-0.001-0.002-0.003-0.003-0.005-0.003l-3.562,0.626
			c-0.005,0.001-0.007-0.007-0.002-0.008l3.426-1.158c0.002-0.001,0.003-0.003,0.003-0.005l-0.626-3.562
			c-0.001-0.005,0.007-0.007,0.008-0.002l1.158,3.426c0.001,0.002,0.003,0.003,0.005,0.003l3.562-0.626
			C690.803,65.111,690.805,65.119,690.8,65.121z"/>
		<path style="fill:#FFFFFF;" d="M332.615,75.858l-3.426,1.158c-0.002,0.001-0.003,0.003-0.003,0.005l0.626,3.562
			c0.001,0.005-0.007,0.007-0.008,0.002l-1.158-3.426c-0.001-0.002-0.003-0.003-0.005-0.003l-3.562,0.626
			c-0.005,0.001-0.007-0.007-0.002-0.008l3.426-1.158c0.002-0.001,0.003-0.003,0.003-0.005l-0.626-3.562
			c-0.001-0.005,0.007-0.007,0.008-0.002l1.158,3.426c0.001,0.002,0.003,0.003,0.005,0.003l3.562-0.626
			C332.618,75.849,332.62,75.857,332.615,75.858z"/>
		<path style="fill:#BEDEE5;" d="M440.566,300.646l-3.426,1.158c-0.002,0.001-0.003,0.003-0.003,0.005l0.626,3.562
			c0.001,0.005-0.007,0.007-0.008,0.002l-1.158-3.426c-0.001-0.002-0.003-0.003-0.005-0.003l-3.562,0.626
			c-0.005,0.001-0.007-0.007-0.002-0.008l3.426-1.158c0.002-0.001,0.003-0.003,0.003-0.005l-0.626-3.562
			c-0.001-0.005,0.007-0.007,0.008-0.002l1.158,3.426c0.001,0.002,0.003,0.003,0.005,0.003l3.562-0.626
			C440.569,300.637,440.571,300.644,440.566,300.646z"/>
		<path style="fill:#F9E178;" d="M69.788,58.713l-3.426,1.158c-0.002,0.001-0.003,0.003-0.003,0.005l0.626,3.562
			c0.001,0.005-0.007,0.007-0.008,0.002l-1.158-3.426c-0.001-0.002-0.003-0.003-0.005-0.003l-3.562,0.626
			c-0.005,0.001-0.007-0.007-0.002-0.008l3.426-1.158c0.002-0.001,0.003-0.003,0.003-0.005l-0.626-3.562
			c-0.001-0.005,0.007-0.007,0.008-0.002l1.158,3.426c0.001,0.002,0.003,0.003,0.005,0.003l3.562-0.626
			C69.792,58.704,69.794,58.712,69.788,58.713z"/>
		<path style="fill:#F9E178;" d="M66.203,246.693l-11.827,3.998c-0.007,0.002-0.011,0.009-0.01,0.017l2.162,12.296
			c0.003,0.018-0.023,0.025-0.029,0.007l-3.998-11.827c-0.002-0.007-0.009-0.011-0.017-0.01l-12.296,2.162
			c-0.018,0.003-0.025-0.023-0.007-0.029l11.827-3.998c0.007-0.002,0.011-0.009,0.01-0.017l-2.162-12.296
			c-0.003-0.018,0.023-0.025,0.029-0.007l3.998,11.827c0.002,0.007,0.009,0.011,0.017,0.01l12.296-2.162
			C66.214,246.661,66.22,246.687,66.203,246.693z"/>
	</g>
	<g id="PEOPLE">
		<g>
			<path style="fill:#E5E1E1;" d="M469.282,455.762h240.284C709.567,455.762,535.552,465.88,469.282,455.762z"/>
			<g>
				<path style="fill:#3A3029;" d="M617.062,69.265c0,0,17.682,2.056,14.623,24.586c-3.059,22.53,32.013,37.376,26.915,64.82
					c-5.098,27.444-83.064,41.913-82.312-16.705C577.039,83.348,588.166,56.303,617.062,69.265z"/>
				<path style="fill:#FF8395;" d="M576.333,434.409c0,0-1.452,8.993-10.216,16.165l2.506,2.879l24.105-12.95
					c0,0-4.75-8.072-7.116-11.659"/>
				<path style="fill:#448BC1;" d="M580.966,234.723c0,0-4.329,71.958-4.329,194.933h11.674c0,0,9.487-97.467,23.479-188.076"/>
				<polygon style="fill:#6BBCED;" points="590.013,428.802 588.976,433.926 576.044,433.926 575.495,427.704 				"/>
				<path style="fill:none;stroke:#332A24;stroke-width:0.5;stroke-linecap:round;stroke-miterlimit:10;" d="M580.942,434.673
					c0,0-4.875,0.496-5.408,0.886c-0.533,0.389,3.718,0.406,4.024,1.753c0.306,1.347-4.44-0.884-4.838,0.13
					c-0.398,1.014,4.347,1.317,4.27,2.745c-0.077,1.428-4.905-0.915-4.905-0.915"/>
				<path style="fill:#448BC1;" d="M582.413,238.166c0,0,11.543,10.329,27.386,16.549c0,0,26.7,71.585,45.764,74.845
					c15.372,2.629,45.292-73.502,45.292-73.502l-10.431-4.73c0,0-27.175,41.175-31.018,43.371
					c-3.843,2.196-17.772-62.068-17.772-62.068"/>
				<path style="fill:#FFCFCF;" d="M579.844,447.425l-11.221,6.028l-2.506-2.879c2.872-2.35,4.947-4.893,6.455-7.254
					C574.477,444.116,577.609,445.587,579.844,447.425z"/>
				<path style="fill:#2270A0;" d="M596.166,247.965c0,0,7.763,4.922,13.633,6.75l-0.385,2.596
					C609.414,257.311,603.198,253.752,596.166,247.965z"/>
				<path style="fill:none;stroke:#E4EFF4;stroke-width:0.5;stroke-linecap:round;stroke-miterlimit:10;" d="M637.446,257.311
					c0,0,14.823,48.917,21.136,48.917c6.314,0,30.469-43.645,30.469-43.645"/>
				<path style="fill:none;stroke:#E4EFF4;stroke-width:0.5;stroke-linecap:round;stroke-linejoin:round;stroke-miterlimit:10;" d="
					M657.942,314.444c0,0,1.555-11.346,0.64-17.751c0,0,1.921,7.228,1.738,13.451"/>
				<polygon style="fill:#332A24;" points="593.225,440.569 568.302,454.029 567.496,453.26 592.912,439.959 				"/>
				<path style="fill:none;stroke:#E4EFF4;stroke-width:0.5;stroke-linecap:round;stroke-miterlimit:10;" d="M601.624,237.878
					c0,0-0.262,4.944,0,9.713l2.196,0.992"/>
				<path style="fill:#F6C141;" d="M603.665,128.088c0,0-17.914,6.488-20.622,9.645c-1.478,12.037-5.546,17.364-6.62,22.313
					c-1.237,5.701,6.412,13.204,6.412,13.204s-4.673,41.304-4.162,63.048c0.108,4.621,62.382,6.808,65.506,0
					c3.125-6.807-6.874-76.078-6.874-76.078s-0.086-18.829-1.907-24.953C633.956,130.415,603.665,128.088,603.665,128.088z"/>
				<path style="fill:#FCB9A7;" d="M603.665,128.976c0,0-2.828,1.024-6.403,2.456c-0.339,3.754-1.467,19.552,3.487,20.508
					c5.289,1.021,9.657-14.582,14.577-21.715C609.017,129.388,603.665,128.976,603.665,128.976z"/>
				<path style="fill:#DB9E16;" d="M601.23,151.94c-4.954-0.956-3.826-16.755-3.487-20.508c3.224-1.291,5.833-2.248,6.316-2.424
					c-0.247-0.02-0.393-0.032-0.393-0.032s-2.828,1.024-6.403,2.456c-0.339,3.754-1.467,19.553,3.487,20.508
					c0.249,0.048,0.495,0.048,0.739,0.025C601.402,151.957,601.316,151.957,601.23,151.94z"/>
				<path style="fill:#FCB9A7;" d="M614.478,104.069c0,0-3.161,17.103-2.409,26.305c0,0-3.721,11.592-8.869,11.592
					c-3.898,0-3.439-11.599-3.439-11.599l-1.041-9.208L614.478,104.069z"/>
				<linearGradient id="SVGID_1_" gradientUnits="userSpaceOnUse" x1="624.7343" y1="131.0642" x2="593.7683" y2="103.0374">
					<stop  offset="0" style="stop-color:#FFFFFF;stop-opacity:0"/>
					<stop  offset="1" style="stop-color:#FF765F"/>
				</linearGradient>
				<path style="fill:url(#SVGID_1_);" d="M613.343,105.299c-0.019-3.295,1.135-1.231,1.135-1.231l-15.758,17.091l0.532,4.703
					C610.163,120.539,613.343,105.299,613.343,105.299z"/>
				<path style="fill:#FCB9A7;" d="M586.601,83.905c-3.317,12.001-2.434,34.595,3.661,37.152
					c12.544,5.598,28.489-13.291,31.377-23.666c2.888-10.374,2.343-23.23-9.556-26.542
					C600.184,67.538,589.727,72.595,586.601,83.905z"/>
				<path style="fill:#3A3029;" d="M604.979,94.043c0,0-1.419-3.366-3.583-3.53C601.397,90.512,605.673,86.74,604.979,94.043z"/>
				<path style="fill:#FF5F5F;" d="M591.397,88.53c0,0-1.353-0.951-3.216-0.042C588.18,88.487,590.75,84.227,591.397,88.53z"/>
				<path style="fill:#FCB9A7;" d="M616.773,103.871c0,0,6.204-5.077,9.179-1.194c3.466,4.522-5.214,12.814-11.844,5.078"/>
				<path style="fill:none;stroke:#FF765F;stroke-width:0.5;stroke-linecap:round;stroke-miterlimit:10;" d="M622.792,107.232
					c0,0-2.268-2.233-5.73-1.431"/>
				
					<linearGradient id="SVGID_00000056401238385723818730000017549443848144413885_" gradientUnits="userSpaceOnUse" x1="596.5217" y1="186.9484" x2="629.7361" y2="267.3768">
					<stop  offset="0" style="stop-color:#FFFFFF;stop-opacity:0"/>
					<stop  offset="1" style="stop-color:#F9ACB2"/>
				</linearGradient>
				<path style="fill:url(#SVGID_00000056401238385723818730000017549443848144413885_);" d="M593.458,233.039
					c-5.094,0-10.049-0.684-14.816-1.939c-0.016,1.825-0.007,3.568,0.031,5.198c0.108,4.621,62.382,6.808,65.506,0
					c1.23-2.679,0.426-15.033-0.999-29.031C630.94,223.086,613.201,233.039,593.458,233.039z"/>
				<path style="fill:none;stroke:#FCE6E6;stroke-width:0.25;stroke-linecap:round;stroke-miterlimit:10;" d="M595.542,151.052
					c0,0,3.018,9.767,10.361,4.834"/>
				<path style="fill:none;stroke:#FCE6E6;stroke-width:0.25;stroke-linecap:round;stroke-miterlimit:10;" d="M613.75,177.603
					c-19.81-3.843-30.286-3.635-30.286-3.635s6.256-0.895,20.49,0.753"/>
				
					<linearGradient id="SVGID_00000144304583976559856550000017700565826605783455_" gradientUnits="userSpaceOnUse" x1="640.8245" y1="205.6887" x2="613.1913" y2="158.2914">
					<stop  offset="0" style="stop-color:#FFFFFF;stop-opacity:0"/>
					<stop  offset="1" style="stop-color:#F9ACB2"/>
				</linearGradient>
				<path style="fill:url(#SVGID_00000144304583976559856550000017700565826605783455_);" d="M610.734,173.726
					c0,0,16.984,5.596,17.35-9.537C628.084,164.188,631.082,187.599,610.734,173.726z"/>
				<path style="fill:none;stroke:#E4EFF4;stroke-width:0.5;stroke-linecap:round;stroke-miterlimit:10;" d="M585.139,424.378
					c0,0,9.087-94.702,18.68-163.602"/>
				<path style="fill:#FF8395;" d="M701.902,255.35c0,0,5.041-7.587,15.986-10.493l-1.091-3.658l-27.303,1.822
					c0,0,0.987,9.314,1.657,13.558"/>
				<polygon style="fill:#6BBCED;" points="687.032,254.822 690.258,250.709 701.814,256.514 699.511,262.32 				"/>
				<path style="fill:none;stroke:#332A24;stroke-width:0.5;stroke-linecap:round;stroke-miterlimit:10;" d="M697.814,253.203
					c0,0,4.644,1.564,5.29,1.43s-3.217-1.907-2.938-3.26c0.279-1.353,3.677,2.641,4.459,1.882c0.782-0.759-3.413-2.997-2.752-4.265
					c0.661-1.268,4.088,2.862,4.088,2.862"/>
				<path style="fill:#3A3029;" d="M618.673,104.031c0,0-8.868-13.412-4.767-23.355c0,0-7.328,13.538-29.105,7.45
					c0,0,2.874-25.001,29.391-17.434C640.71,78.258,618.673,104.031,618.673,104.031z"/>
				<path style="fill:#3A3029;" d="M619.09,100.622c-0.051,0-0.102-0.014-0.147-0.043c-7.513-4.871-7.636-11.812-6.568-16.522
					c-1.553,2.448-3.936,5.166-7.346,6.544c-4.289,1.735-9.286,1.036-14.855-2.073c-0.13-0.073-0.177-0.239-0.105-0.37
					c0.073-0.13,0.237-0.177,0.37-0.104c5.416,3.025,10.254,3.714,14.384,2.046c4.188-1.692,6.778-5.496,8.157-8.191
					c0.613-1.825,1.262-2.987,1.285-3.026l1.183-2.067l-0.687,2.28c-0.01,0.033-0.416,1.343-1.32,3.099
					c-0.422,1.261-0.821,2.831-0.972,4.551c-0.494,5.643,1.783,10.144,6.769,13.377c0.126,0.082,0.162,0.25,0.081,0.376
					C619.266,100.579,619.179,100.622,619.09,100.622z"/>
				<path style="fill:none;stroke:#332A24;stroke-width:0.5;stroke-linecap:round;stroke-miterlimit:10;" d="M602.76,100.582
					c0,0,0.478-5.303-1.156-6.019c-1.633-0.716-2.885,4.686-2.885,4.686"/>
				<path style="fill:none;stroke:#332A24;stroke-width:0.5;stroke-linecap:round;stroke-miterlimit:10;" d="M590.467,97.799
					c0,0,0.115-4.416-1.349-4.704c-1.464-0.288-1.695,5.269-1.695,5.269"/>
				<path style="fill:#FFFFFF;" d="M592.284,106.069c0,0,2.804-0.001,5.607-1.071c0,0,0.051,3.772-1.427,4.945
					C594.986,111.115,593.253,108.822,592.284,106.069z"/>
				<path style="fill:#FCB9A7;" d="M595.437,93.88c0,0-1.394,3.984-4.347,5.701c-0.361,0.21-0.413,0.711-0.115,1.004l1.949,1.918"/>
				<g>
					<path style="fill:none;stroke:#FF765F;stroke-width:0.5;stroke-linecap:round;stroke-miterlimit:10;" d="M595.437,93.88
						c0,0-1.394,3.984-4.347,5.701c-0.361,0.21-0.413,0.711-0.115,1.004l1.949,1.918"/>
					<path style="fill:none;stroke:#BF3532;stroke-width:0.5;stroke-miterlimit:10;" d="M597.067,96.34"/>
				</g>
				
					<linearGradient id="SVGID_00000124134510941235829160000004321840382356861346_" gradientUnits="userSpaceOnUse" x1="637.9249" y1="224.6676" x2="603.7828" y2="155.962">
					<stop  offset="0" style="stop-color:#FFFFFF;stop-opacity:0"/>
					<stop  offset="1" style="stop-color:#F9ACB2"/>
				</linearGradient>
				<path style="fill:url(#SVGID_00000124134510941235829160000004321840382356861346_);" d="M637.877,164.265
					c-0.356-2.553-0.571-4.045-0.571-4.045s-0.048-10.597-0.841-18.477c-1.27-0.521-2.171-0.673-2.171-0.673
					c-9.235,3.122-21.249,24.929-30.292,27.493c-3.089,0.876-11.482,2.674-21.192,4.661c0.006,0.006,0.026,0.026,0.026,0.026
					s-0.81,7.164-1.718,17.085c11.007-0.619,21.683-2.06,28.391-5.043C620.529,180.392,631.288,172.008,637.877,164.265z"/>
				
					<linearGradient id="SVGID_00000098221957837047225700000011678595414764859791_" gradientUnits="userSpaceOnUse" x1="634.267" y1="129.9375" x2="578.3532" y2="195.3773">
					<stop  offset="0" style="stop-color:#FFFFFF;stop-opacity:0"/>
					<stop  offset="1" style="stop-color:#F9ACB2"/>
				</linearGradient>
				<path style="fill:url(#SVGID_00000098221957837047225700000011678595414764859791_);" d="M637.279,158.034
					c0-0.002,0-0.003,0-0.005c-0.003-0.16-0.006-0.328-0.009-0.502c0-0.026-0.001-0.051-0.001-0.077
					c-0.003-0.159-0.006-0.325-0.01-0.495c-0.001-0.054-0.002-0.109-0.004-0.164c-0.004-0.173-0.007-0.349-0.012-0.532
					c-0.001-0.019-0.001-0.039-0.001-0.059c-0.133-5.763-0.539-16.177-1.772-20.669c-9.413,3.117-22.65,23.11-31.664,24.947
					c-3.722,0.759-14.944,2.245-26.992,3.747c0.091,0.274,0.195,0.547,0.306,0.819c0.012,0.03,0.024,0.059,0.036,0.089
					c1.404,3.385,4.142,6.497,5.223,7.646c0.015,0.016,0.034,0.036,0.048,0.052c0.068,0.072,0.126,0.133,0.178,0.187
					c0.033,0.034,0.067,0.069,0.093,0.096c0.027,0.028,0.058,0.06,0.077,0.079c0.028,0.028,0.06,0.06,0.06,0.06
					s-0.016,0.143-0.042,0.377c-0.009,0.078-0.019,0.168-0.03,0.27c-0.008,0.067-0.015,0.14-0.024,0.217
					c-0.015,0.14-0.033,0.298-0.051,0.471c-0.007,0.068-0.015,0.137-0.023,0.209c-0.136,1.253-0.345,3.216-0.598,5.707
					c10.051,0.059,19.629-0.662,25.972-2.928c11.042-3.945,22.081-11.191,29.259-18.23
					C637.294,158.997,637.288,158.555,637.279,158.034z"/>
				<polygon style="fill:#332A24;" points="689.07,242.755 717.328,240.807 717.744,241.841 689.102,243.441 				"/>
				<path style="fill:#FFCFCF;" d="M708.633,249.033c0,0-1.002-3.821-2.273-6.556l10.46-0.584l1.067,2.964
					C717.888,244.857,713.451,245.784,708.633,249.033z"/>
				<path style="fill:#3A3029;" d="M657.376,171.426c-0.053,0-0.107-0.015-0.154-0.048c-0.124-0.085-0.155-0.254-0.07-0.378
					c13.778-20.042-11.13-44.696-11.384-44.943c-0.107-0.105-0.109-0.277-0.004-0.384c0.104-0.106,0.276-0.11,0.384-0.005
					c0.256,0.25,25.488,25.221,11.452,45.64C657.547,171.384,657.462,171.426,657.376,171.426z"/>
				<path style="fill:#3A3029;" d="M631.277,75.463c-0.088,0-0.175-0.043-0.227-0.123c-2.451-3.743-5.093-5.748-7.854-5.959
					c-3.449-0.263-5.907,2.43-5.931,2.457L616.85,72.3l-0.058-0.618c-0.004-0.047-0.47-4.716-3.187-6.457
					c-0.126-0.081-0.163-0.249-0.083-0.375c0.083-0.127,0.249-0.162,0.375-0.082c2.387,1.53,3.15,4.964,3.362,6.312
					c0.866-0.791,3.058-2.464,5.971-2.241c2.941,0.222,5.724,2.309,8.273,6.204c0.083,0.125,0.047,0.294-0.079,0.376
					C631.38,75.449,631.328,75.463,631.277,75.463z"/>
				
					<linearGradient id="SVGID_00000068645190107324739640000012938888309721464760_" gradientUnits="userSpaceOnUse" x1="857.798" y1="298.0674" x2="563.2869" y2="196.1431">
					<stop  offset="0" style="stop-color:#FFFFFF;stop-opacity:0"/>
					<stop  offset="1" style="stop-color:#F9ACB2"/>
				</linearGradient>
				<path style="fill:url(#SVGID_00000068645190107324739640000012938888309721464760_);" d="M642.918,238.426l-56.257-103.143
					c-1.703,0.907-3.025,1.758-3.618,2.45c-1.478,12.037-5.546,17.364-6.62,22.313c-1.237,5.701,6.412,13.204,6.412,13.204
					s-4.673,41.304-4.162,63.048c0.012,0.506,0.778,0.983,2.125,1.422c-0.269,4.986-0.832,16.152-1.459,32.927l30.09-13.429
					c0.123-0.835,0.246-1.669,0.37-2.503l0,0c0,0,0.268,0.718,0.763,1.998l32.063-14.31l0.573-2.731
					C643.101,239.241,643.007,238.825,642.918,238.426z"/>
				<g>
					<path style="fill:none;stroke:#F2D4D3;stroke-miterlimit:10;" d="M485.011,130.826c0,0-26.93-57.443-8.825-66.563
						c18.105-9.119,33.365-5.213,49.458,56.065"/>
					<path style="fill:none;stroke:#F2D4D3;stroke-miterlimit:10;" d="M491.267,130.097c0,0-30.861-55.43-13.435-65.787
						c17.426-10.357,32.921-7.522,53.239,52.488"/>
					<polygon style="fill:#FC5959;" points="446.491,131.745 563.752,92.433 635.446,239.456 493.076,295.224 					"/>
					<polygon style="fill:#A01F1F;" points="493.076,295.224 500.006,295.534 634.615,242.681 635.446,239.456 					"/>
					<polygon style="fill:#EA433F;" points="465.211,154.12 484.418,213.639 589.095,182.437 563.663,119.969 					"/>
					<text transform="matrix(0.9477 -0.3193 0.3193 0.9477 479.045 173.8375)"><tspan x="0" y="0" style="fill:#FFFFFF; font-family:'Oswald-Medium'; font-size:35.2382px;">SUPER</tspan><tspan x="-0.864" y="49.921" style="fill:#FFFFFF; font-family:'Oswald-Medium'; font-size:49.9207px;">SALE</tspan></text>
					<path style="fill:none;stroke:#594F59;stroke-width:0.75;stroke-miterlimit:10;" d="M469.736,123.952
						c0,0-13.755-30.929-23.113-19.738c-8.927,10.676,17.298,29.061,50.874,62.233c39.347,38.873-6.113,78.323-41.733,39.492"/>
					<path style="fill:#F2D4D3;" d="M499.923,231.123c1.87-0.384,3.637-0.964,5.29-1.724c5.923-2.725,10.328-7.763,12.421-14.395
						c1.982-6.279,4.419-23.185-15.704-44.51c-8.009-8.486-15.765-16.365-22.608-23.317c-7.327-7.443-13.894-14.116-19.257-19.983
						l-0.975,0.327c5.432,5.969,12.107,12.751,19.557,20.319c6.841,6.948,14.593,14.823,22.594,23.304
						c19.78,20.96,17.423,37.456,15.49,43.577c-2.571,8.145-8.777,13.782-16.999,15.477c-4.54,0.934-14.879,1.516-27.367-7.651
						l0.415,1.457C485.138,232.662,495.367,232.06,499.923,231.123z"/>
					<path style="fill:#F6C141;" d="M406.077,187.209l42.742,29.505c0.496,0.343,1.164,0.296,1.609-0.112l17.231-15.818
						c0.532-0.488,0.561-1.317,0.064-1.842l-42.705-45.063c-0.602-0.635-1.649-0.501-2.071,0.266l-17.267,31.375
						C405.359,186.103,405.531,186.833,406.077,187.209z"/>
					<path style="fill:#FFFFFF;" d="M427.135,136.357l-1.406,18.219c-0.001,0.011,0.006,0.02,0.017,0.023l17.797,4.146
						c0.026,0.006,0.02,0.045-0.007,0.043l-18.219-1.406c-0.011-0.001-0.02,0.006-0.023,0.017l-4.146,17.797
						c-0.006,0.026-0.045,0.02-0.043-0.007l1.406-18.219c0.001-0.011-0.006-0.02-0.017-0.023l-17.797-4.146
						c-0.026-0.006-0.02-0.045,0.007-0.043l18.219,1.406c0.011,0.001,0.02-0.006,0.023-0.017l4.146-17.797
						C427.098,136.324,427.137,136.33,427.135,136.357z"/>
					<g>
						
							<text transform="matrix(0.7911 0.6117 -0.6117 0.7911 412.3828 180.81)" style="fill:#FFFFFF; font-family:'Oswald-Medium'; font-size:20.9206px;">-70%</text>
					</g>
				</g>
				
					<linearGradient id="SVGID_00000127750374358386362970000000455485617434049180_" gradientUnits="userSpaceOnUse" x1="564.7037" y1="255.439" x2="563.6843" y2="159.6046">
					<stop  offset="0" style="stop-color:#FFFFFF;stop-opacity:0"/>
					<stop  offset="1" style="stop-color:#F9ACB2"/>
				</linearGradient>
				<path style="fill:url(#SVGID_00000127750374358386362970000000455485617434049180_);" d="M599.326,165.385
					c-15.987,3.648-58.862,11.881-58.862,11.881s-6.143-7.258-7.249-6.792c-1.107,0.465,2.687,7.157,2.687,7.157
					s-13.052-6.955-14.64-6.428c-1.588,0.527,10.267,7.956,10.267,7.956s-10.854-2.002-11.064-0.843
					c-0.211,1.159,10.38,3.794,10.38,3.794s-9.417-1.159-9.582,0.211c-0.166,1.37,10.636,2.582,10.636,2.582s-9.3,0.155-8.167,0.948
					c3.688,2.582,13.277-0.316,13.277-0.316s1.256,0.118,2.604-0.02c0,0,47.316,3.635,67.729-3.69L599.326,165.385z"/>
				<g>
					<path style="fill:#F6C141;" d="M634.293,133.837c0,0,7.233,1.118,9.833,8.946c2.659,8.007-15.612,26.824-34.618,35.276
						c-19.006,8.452-69.874,4.542-69.874,4.542l0.852-8.248c0,0,54.474-10.459,63.516-13.024
						C613.044,158.766,625.058,136.959,634.293,133.837z"/>
					<path style="fill:#FCB9A7;" d="M540.485,174.354c0,0-6.143-7.258-7.249-6.792c-1.107,0.465,2.687,7.157,2.687,7.157
						s-13.052-6.955-14.64-6.428c-1.588,0.527,10.267,7.956,10.267,7.956s-10.854-2.002-11.065-0.843
						c-0.211,1.159,10.38,3.794,10.38,3.794s-9.417-1.159-9.582,0.211c-0.166,1.37,10.636,2.582,10.636,2.582
						s-9.3,0.155-8.167,0.948c3.688,2.582,13.277-0.316,13.277-0.316s1.256,0.118,2.604-0.02
						C539.633,182.602,541.609,175.647,540.485,174.354z"/>
					<g>
						<path style="fill:#FF765F;" d="M540.485,174.354c-0.98-1.128-1.984-2.234-3.017-3.312c-1.041-1.065-2.084-2.152-3.282-3.024
							c-0.151-0.104-0.306-0.206-0.469-0.282c-0.153-0.072-0.349-0.153-0.459-0.087c-0.221,0.162-0.118,0.625-0.045,0.952
							c0.186,0.711,0.483,1.399,0.785,2.076c0.623,1.351,1.312,2.677,2.041,3.975c0.036,0.064,0.013,0.146-0.051,0.183
							c-0.041,0.023-0.09,0.022-0.128,0.002c-2.167-1.137-4.352-2.243-6.556-3.306c-2.208-1.042-4.425-2.121-6.73-2.87
							c-0.288-0.088-0.58-0.162-0.864-0.203c-0.14-0.016-0.28-0.017-0.371,0.006c-0.005,0.011-0.01,0.012-0.023,0.011
							c0.002,0.005,0.018-0.002,0.004-0.007c0.016,0.031,0.007,0.065,0.05,0.125c0.281,0.451,0.786,0.861,1.237,1.246
							c0.938,0.771,1.932,1.486,2.932,2.187c2.005,1.397,4.058,2.733,6.128,4.034c0.102,0.064,0.133,0.2,0.069,0.302
							c-0.049,0.078-0.14,0.114-0.225,0.099c-1.838-0.325-3.687-0.615-5.538-0.85c-0.926-0.116-1.853-0.217-2.779-0.279
							c-0.463-0.029-0.926-0.049-1.382-0.04c-0.226,0.006-0.456,0.015-0.667,0.049c-0.197,0.009-0.454,0.139-0.41,0.112
							c-0.037-0.078,0.115,0.158,0.291,0.25c0.182,0.117,0.377,0.227,0.583,0.325c0.409,0.199,0.839,0.374,1.271,0.54
							c0.868,0.328,1.754,0.621,2.644,0.899c1.782,0.553,3.585,1.054,5.393,1.518c0.115,0.029,0.185,0.146,0.156,0.262
							c-0.027,0.106-0.129,0.173-0.234,0.161c-1.727-0.206-3.466-0.367-5.202-0.444c-0.868-0.034-1.738-0.052-2.596,0.008
							c-0.425,0.033-0.858,0.082-1.237,0.209c-0.181,0.064-0.345,0.181-0.332,0.252c-0.01,0.061,0.14,0.216,0.308,0.312
							c0.722,0.394,1.59,0.602,2.424,0.812c0.845,0.199,1.699,0.368,2.557,0.519c1.716,0.302,3.444,0.549,5.174,0.757
							c0.085,0.01,0.145,0.086,0.136,0.171c-0.009,0.077-0.075,0.135-0.15,0.137c-1.842,0.034-3.688,0.094-5.522,0.234
							c-0.458,0.037-0.916,0.079-1.37,0.139c-0.426,0.063-0.969,0.129-1.241,0.304c0.017,0.01-0.017-0.049,0.012-0.016
							c0.012,0.018,0.063,0.049,0.115,0.076l0.293,0.164c0.194,0.112,0.387,0.227,0.607,0.288c0.214,0.072,0.424,0.157,0.641,0.223
							l0.667,0.145c1.798,0.339,3.662,0.206,5.485-0.003c1.827-0.236,3.638-0.608,5.416-1.098l0.009-0.001
							c0.864,0.074,1.736,0.079,2.602,0.002c-0.865,0.092-1.737,0.102-2.606,0.042l0.008-0.001c-1.772,0.521-3.58,0.925-5.41,1.193
							c-1.828,0.24-3.698,0.41-5.545,0.094l-0.688-0.138c-0.225-0.064-0.446-0.148-0.669-0.224c-0.228-0.063-0.434-0.182-0.641-0.3
							l-0.311-0.173c-0.051-0.028-0.103-0.05-0.167-0.121c-0.07-0.039-0.108-0.24-0.016-0.319c0.258-0.215,0.479-0.218,0.713-0.287
							c0.231-0.047,0.461-0.087,0.692-0.117c0.461-0.064,0.922-0.109,1.383-0.149c1.845-0.152,3.691-0.222,5.54-0.268l-0.015,0.307
							c-1.739-0.199-3.471-0.436-5.198-0.73c-0.863-0.147-1.724-0.311-2.58-0.508c-0.854-0.212-1.711-0.4-2.532-0.839
							c-0.18-0.131-0.461-0.254-0.493-0.649c0.05-0.393,0.377-0.497,0.575-0.587c0.451-0.153,0.894-0.199,1.337-0.238
							c0.885-0.068,1.764-0.054,2.641-0.025c1.754,0.068,3.497,0.219,5.239,0.416l-0.078,0.423
							c-1.821-0.456-3.629-0.947-5.426-1.493c-0.898-0.275-1.792-0.564-2.677-0.893c-0.442-0.167-0.882-0.343-1.315-0.55
							c-0.217-0.102-0.432-0.219-0.644-0.355c-0.106-0.079-0.211-0.144-0.315-0.259c-0.091-0.086-0.245-0.285-0.174-0.551
							c0.107-0.278,0.294-0.3,0.42-0.365c0.136-0.045,0.264-0.076,0.388-0.09c0.251-0.039,0.491-0.045,0.732-0.051
							c0.48-0.007,0.953,0.017,1.424,0.049c0.942,0.068,1.875,0.176,2.806,0.298c1.862,0.247,3.711,0.548,5.558,0.886l-0.156,0.401
							c-2.07-1.318-4.117-2.667-6.123-4.082c-1.001-0.711-1.994-1.433-2.944-2.223c-0.466-0.414-0.951-0.776-1.32-1.368
							c-0.047-0.066-0.079-0.19-0.089-0.306c0.014-0.074,0.042-0.164,0.086-0.217c0.051-0.042,0.112-0.081,0.171-0.111
							c0.206-0.057,0.375-0.039,0.54-0.023c0.322,0.049,0.624,0.128,0.921,0.221c2.353,0.781,4.551,1.869,6.763,2.928
							c2.203,1.078,4.383,2.197,6.547,3.349l-0.18,0.184c-0.724-1.312-1.417-2.639-2.015-4.015c-0.294-0.69-0.582-1.385-0.762-2.124
							c-0.038-0.187-0.08-0.374-0.082-0.572c0-0.184,0.004-0.44,0.233-0.576c0.245-0.104,0.435,0.022,0.607,0.094
							c0.175,0.085,0.331,0.193,0.485,0.303c1.206,0.909,2.223,2.011,3.25,3.096C538.539,172.086,539.524,173.21,540.485,174.354z"
							/>
					</g>
				</g>
			</g>
		</g>
		<g>
			<g>
				<polygon style="fill:#EA433F;" points="280.995,202.674 357.08,170.296 412.608,264.511 320.656,309.18 				"/>
				
					<linearGradient id="SVGID_00000009557324722942182790000005220907346736130206_" gradientUnits="userSpaceOnUse" x1="490.6021" y1="430.2242" x2="282.4987" y2="174.2809" gradientTransform="matrix(0.929 -0.3701 0.3701 0.929 -59.7389 133.9752)">
					<stop  offset="0" style="stop-color:#FFFFFF;stop-opacity:0"/>
					<stop  offset="1" style="stop-color:#FF765F"/>
				</linearGradient>
				<polygon style="opacity:0.47;fill:url(#SVGID_00000009557324722942182790000005220907346736130206_);" points="301.241,257.042 
					310.825,282.779 388.98,256.764 353.021,172.115 352.398,172.288 288.072,199.663 				"/>
				<path style="fill:none;stroke:#F2D4D3;stroke-miterlimit:10;" d="M303.354,188.795c0,0-13.442-33.042-3.009-37.633
					c10.432-4.591,18.887-1.952,26.132,32.926"/>
				<path style="fill:none;stroke:#F2D4D3;stroke-miterlimit:10;" d="M306.888,188.569c0,0-15.708-32.027-5.621-37.333
					c10.088-5.306,18.705-3.261,28.36,31.028"/>
				<polygon style="fill:#FC5959;" points="281.698,188.185 348.69,169.54 384.648,254.189 303.077,281.341 				"/>
				<path style="fill:#FCB9A7;" d="M314.341,143.912c0,0-4.592-6.943-10.975-5.992c-6.384,0.952-9.519,4.368-10.023,5.488
					c-0.504,1.12,3.08,6.607,4.2,6.943s3.472,0,3.472,0s2.136,1.064,2.804,1.064c0.668,0,3.356-1.4,5.54-3.248
					c0,0,3.808,1.512,5.6,1.456C316.749,149.567,315.988,145.91,314.341,143.912z"/>
				<polygon style="fill:#AF2525;" points="320.656,309.18 323.547,309.18 410.517,269.263 412.608,264.511 				"/>
				<polygon style="fill:#A01F1F;" points="303.077,281.341 306.959,281.718 384.087,255.976 384.648,254.189 				"/>
				<path style="fill:none;stroke:#594F59;stroke-width:0.75;stroke-miterlimit:10;" d="M329.934,174.76
					c0,0-4.195-15.289,3.893-16.655c9.348-1.579,4.512,15.034,21.432,35.479c19.827,23.959,50.474-3.796,30.486-25.666"/>
				<path style="fill:#60C6A4;" d="M372.586,126.391l19.09,33.641c0.222,0.391,0.144,0.883-0.188,1.186l-12.863,11.747
					c-0.397,0.363-1.014,0.33-1.37-0.073l-30.635-34.632c-0.432-0.488-0.264-1.256,0.333-1.519l24.407-10.756
					C371.813,125.785,372.342,125.961,372.586,126.391z"/>
				<g>
					
						<text transform="matrix(0.6403 0.7682 -0.7682 0.6403 354.6811 137.9666)" style="fill:#FFFFFF; font-family:'Oswald-Medium'; font-size:15.5807px;">-80%</text>
				</g>
				<path style="fill:#60C6A4;" d="M228.375,125.081c0,0,5.913,2.24,9.501,6.16c3.588,3.92,21.528,30.032,24.518,30.232
					c2.99,0.199,28.256-19.933,31.246-19.933c2.99,0,9.219,7.753,9.219,10.156c0,2.402-31.893,33.897-39.468,34.894
					c-7.575,0.997-34.285-20.275-34.285-20.275"/>
				<g>
					<path style="fill:#594F59;" d="M225.35,239.35c0,0,62.43,34.561,70.141,48.086c9.568,16.784,28.056,96.95,28.056,96.95
						l-10.215,5.059c0,0-31.794-82.076-38.173-88.056c-6.379-5.98-80.437-40.822-80.437-40.822"/>
					<path style="fill:#F6C141;" d="M324.73,388.369c0,0,7.675,5.291,19.179,3.89l0.355,3.89l-26.633,8.652
						c0,0-2.605-9.224-3.582-13.512"/>
					<polygon style="fill:#7F7A7F;" points="310.995,387.9 313.711,392.509 326.219,388.184 324.669,381.983 					"/>
					<path style="fill:#FCF8E3;" d="M331.866,400.176l12.398-4.027l-0.355-3.89c-3.77,0.459-7.118,0.194-9.93-0.363
						C333.219,393.867,332.09,397.223,331.866,400.176z"/>
					<polygon style="fill:#332A24;" points="317.328,405.215 344.917,396.319 344.919,395.179 317.099,404.551 					"/>
					<path style="fill:none;stroke:#332A24;stroke-width:0.5;stroke-linecap:round;stroke-miterlimit:10;" d="M321.663,391.963
						c0,0,3.817-3.252,4.482-3.37c0.665-0.118-2.332,3.035-1.552,4.215c0.78,1.18,2.489-3.907,3.521-3.484
						c1.032,0.423-2.103,4.145-0.993,5.099c1.11,0.954,2.795-4.273,2.795-4.273"/>
					
						<path style="fill:none;stroke:#CEBACA;stroke-width:0.5;stroke-linecap:round;stroke-linejoin:round;stroke-miterlimit:10;" d="
						M214.661,262.818c0,0,60.697,28.106,65.78,35.88c5.083,7.774,32.89,84.019,32.89,84.019"/>
					
						<path style="fill:none;stroke:#CEBACA;stroke-width:0.5;stroke-linecap:round;stroke-linejoin:round;stroke-miterlimit:10;" d="
						M282.434,294.312c0,0-2.292,2.492-4.585,5.781"/>
				</g>
				<path style="fill:#F6C141;" d="M172.898,442.264c0,0,2.25,5.767,8.009,11.104l-0.983,2.669h-20.288
					c0,0,0.764-11.236,1.467-16.012"/>
				<path style="fill:#594F59;" d="M230.195,242.257c0,0-6.946,11.701-30.379,20.451c0,0-13.169,69.249-26.373,175.536h-12.627
					c0,0,5.435-142.823,4.583-201.412"/>
				
					<polyline style="fill:none;stroke:#CEBACA;stroke-width:0.75;stroke-linecap:round;stroke-linejoin:round;stroke-miterlimit:10;" points="
					208.721,243.729 210.028,254.091 205.35,256.463 				"/>
				<path style="fill:#423A42;" d="M202.689,264.34l8.184-7.016c-4.233,1.917-10.884,5.582-11.033,5.663
					C200.701,263.395,201.65,263.846,202.689,264.34z"/>
				<polygon style="fill:#7F7A7F;" points="159.214,436.246 159.651,441.989 174.197,442.301 174.758,436.808 				"/>
				<path style="fill:none;stroke:#CEBACA;stroke-width:0.5;stroke-linecap:round;stroke-linejoin:round;stroke-miterlimit:10;" d="
					M170.267,259.678c0,0-4.935,133.62-6.808,171.824"/>
				<path style="fill:#FCB9A7;" d="M190.902,90.468c0,0-4.297-5.768-7.731-3.035c-4,3.183,1.754,12.288,9.206,6.995"/>
				<path style="fill:none;stroke:#FF765F;stroke-width:0.5;stroke-linecap:round;stroke-miterlimit:10;" d="M184.932,92.085
					c0,0,2.46-1.451,5.299,0"/>
				
					<linearGradient id="SVGID_00000160888882723054012900000005406152495309938332_" gradientUnits="userSpaceOnUse" x1="276.9382" y1="122.5197" x2="237.2989" y2="144.988">
					<stop  offset="0" style="stop-color:#FFFFFF;stop-opacity:0"/>
					<stop  offset="1" style="stop-color:#AFD8CA"/>
				</linearGradient>
				<path style="opacity:0.53;fill:url(#SVGID_00000160888882723054012900000005406152495309938332_);" d="M231.117,128.886
					c-0.818-0.924-0.474-2-2.729-3.101l0.718,40.528c0,0,2.28,1.814,5.685,4.352c0.247-1.779,0.56-3.261,0.956-4.36
					C236.007,149.364,232.24,130.155,231.117,128.886z"/>
				
					<linearGradient id="SVGID_00000139983592267121288780000014700059689375135896_" gradientUnits="userSpaceOnUse" x1="276.9382" y1="122.5197" x2="237.2989" y2="144.988">
					<stop  offset="0" style="stop-color:#FFFFFF;stop-opacity:0"/>
					<stop  offset="1" style="stop-color:#AFD8CA"/>
				</linearGradient>
				<path style="opacity:0.53;fill:url(#SVGID_00000139983592267121288780000014700059689375135896_);" d="M231.117,128.886
					c-0.818-0.924-0.474-2-2.729-3.101l0.718,40.528c0,0,2.28,1.814,5.685,4.352c0.247-1.779,0.56-3.261,0.956-4.36
					C236.007,149.364,232.24,130.155,231.117,128.886z"/>
				<path style="fill:#60C6A4;" d="M191.188,115.344c0,0-22.626,6.655-28.244,9.736c-5.618,3.082,1.602,49.052,1.602,49.052
					s-3.125,66.446-1.216,69.554c2.857,4.652,67.557,2.478,71.115-0.241c1.993-0.559-4.482-65.481,0.171-78.409
					c0.261-16.941-1.381-36.15-2.505-37.419c-2.996-3.383-18.852-8.821-24.033-9.969"/>
				<path style="fill:#105433;" d="M206.676,146.821c9.223-0.858,6.914-17.986,5.262-26.205c-0.16-0.797-0.755-1.431-1.537-1.654
					c-1.032-0.293-1.937-0.529-2.664-0.693c-0.065-0.015-0.126-0.025-0.192-0.034l-17.066-2.553c-0.306-0.042,0.296-0.088,0,0
					c-0.621,0.184-3.553,0.307-5.206,0.809c-1.256,0.382-2.217,1.719-1.67,2.912C187.366,127.618,197.042,147.717,206.676,146.821z"
					/>
				<path style="fill:#1A7C50;" d="M207.386,146.485c9.224-0.858,6.914-17.986,5.262-26.206c-0.16-0.797-0.755-1.431-1.537-1.653
					c-1.032-0.294-1.937-0.529-2.664-0.693c-0.065-0.015-0.126-0.025-0.192-0.034l-17.066-2.553c-0.305-0.042,0.296-0.088,0,0
					c-0.621,0.184-4.263,0.643-5.916,1.146c-1.256,0.382-1.897,1.785-1.351,2.978C187.686,127.683,197.752,147.381,207.386,146.485z
					"/>
				<path style="fill:#FCB9A7;" d="M207.223,143.699c8.145-0.758,6.106-15.884,4.647-23.143c-0.141-0.704-0.667-1.264-1.357-1.46
					c-0.911-0.259-1.711-0.468-2.353-0.612c-0.057-0.013-0.111-0.022-0.17-0.03l-16.393-2.237c-0.27-0.037-0.537-0.018-0.798,0.06
					c-0.548,0.163-1.646,0.49-3.105,0.934c-1.109,0.337-1.675,1.576-1.193,2.63C189.824,127.095,198.714,144.49,207.223,143.699z"/>
				<path style="fill:#FCB9A7;" d="M191.106,93.861c0,0-0.333,15.343-1.55,23.583c0,0,9.196,18.624,15.844,18.718
					c6.648,0.094,4.007-18.437,4.007-18.437l1.592-8.24L191.106,93.861z"/>
				<path style="fill:#FCB9A7;" d="M223.983,75.51c2.043,12.649,2.454,34.16-8.172,37.301c-15.972,4.722-28.469-20.003-30.253-30.94
					c-1.784-10.937,5.635-21.249,16.572-23.033C213.066,57.054,222.058,63.59,223.983,75.51z"/>
				<path style="fill:none;stroke:#FF765F;stroke-width:0.5;stroke-linecap:round;stroke-miterlimit:10;" d="M215.719,77.28
					l4.319,10.288c0.382,0.91-0.162,1.943-1.128,2.143l-3.563,0.737"/>
				<path style="fill:none;stroke:#FCE6E6;stroke-width:0.25;stroke-linecap:round;stroke-miterlimit:10;" d="M194.361,173.43
					c0,0,15.356-5.244,37.642-7.117"/>
				<path style="fill:none;stroke:#FCE6E6;stroke-width:0.25;stroke-linecap:round;stroke-miterlimit:10;" d="M187.135,171.182
					c0,0,21.039-3.933,44.823-4.869"/>
				<path style="fill:none;stroke:#FCE6E6;stroke-width:0.25;stroke-linecap:round;stroke-miterlimit:10;" d="M202.229,149.126
					c0,0,10.238,3.745,12.36-6.867"/>
				<path style="fill:#332A24;" d="M210.841,85.141c0,0.706-0.485,1.277-1.083,1.277c-0.598,0-1.083-0.572-1.083-1.277
					c0-0.705,0.485-1.277,1.083-1.277C210.356,83.864,210.841,84.436,210.841,85.141z"/>
				<ellipse style="fill:#332A24;" cx="221.48" cy="84.36" rx="1.083" ry="1.277"/>
				<path style="fill:#F45E4A;" d="M206.113,80.691c0,0,1.966-2.622,3.886-2.294C209.998,78.397,207.096,74.183,206.113,80.691z"/>
				<path style="fill:#F45E4A;" d="M220.176,76.618c0,0,1.385-0.534,2.809,0.662C222.985,77.28,221.674,73.013,220.176,76.618z"/>
				<path style="fill:#FCF8E3;" d="M180.907,453.369c-0.776-0.719-1.484-1.446-2.135-2.166c-10.32-1.237-16.124,4.835-16.124,4.835
					h17.276L180.907,453.369z"/>
				<polygon style="fill:#332A24;" points="159.214,455.721 180.626,455.511 180.135,456.599 159.214,456.353 				"/>
				<path style="fill:none;stroke:#332A24;stroke-width:0.5;stroke-linecap:round;stroke-miterlimit:10;" d="M165.176,444.379
					c0,0,5.513-1.124,8.884-1.053c3.371,0.07-8.041,1.756-8.041,3.23c0,1.475,7.34-2.596,9.024-1.44
					c1.791,1.229-5.724,1.089-7.409,2.914c-1.686,1.826,6.636-1.721,9.2,0"/>
				<path style="fill:none;stroke:#FCE6E6;stroke-width:0.25;stroke-linecap:round;stroke-miterlimit:10;" d="M164.256,126.873
					c0,0,4.934,2.603,4.934,20.16"/>
				<g>
					
						<linearGradient id="SVGID_00000099647323014249338870000009915033239900334471_" gradientUnits="userSpaceOnUse" x1="194.5873" y1="218.3288" x2="193.8792" y2="218.8086">
						<stop  offset="0" style="stop-color:#FFFFFF;stop-opacity:0"/>
						<stop  offset="1" style="stop-color:#FF765F"/>
					</linearGradient>
					<path style="fill:url(#SVGID_00000099647323014249338870000009915033239900334471_);" d="M193.925,218.541
						c0.13,0.297,0.277,0.327,0.435,0.167C194.215,218.654,194.071,218.599,193.925,218.541z"/>
				</g>
				
					<linearGradient id="SVGID_00000142170671031377303470000014054053917462100873_" gradientUnits="userSpaceOnUse" x1="221.2392" y1="208.072" x2="205.691" y2="163.4209">
					<stop  offset="0" style="stop-color:#FFFFFF;stop-opacity:0"/>
					<stop  offset="1" style="stop-color:#AFD8CA"/>
				</linearGradient>
				<polygon style="opacity:0.53;fill:url(#SVGID_00000142170671031377303470000014054053917462100873_);" points="203.756,143.084 
					199.25,153.139 195.214,148.112 				"/>
				
					<linearGradient id="SVGID_00000137118129861998117590000017384519930268398477_" gradientUnits="userSpaceOnUse" x1="235.9144" y1="202.9618" x2="220.3663" y2="158.3107">
					<stop  offset="0" style="stop-color:#FFFFFF;stop-opacity:0"/>
					<stop  offset="1" style="stop-color:#AFD8CA"/>
				</linearGradient>
				<polygon style="opacity:0.53;fill:url(#SVGID_00000137118129861998117590000017384519930268398477_);" points="211.233,141.351 
					218.037,148.112 217.688,141.351 				"/>
				
					<linearGradient id="SVGID_00000057122537086325733290000017440383487999233687_" gradientUnits="userSpaceOnUse" x1="221.2392" y1="208.072" x2="205.691" y2="163.4209">
					<stop  offset="0" style="stop-color:#FFFFFF;stop-opacity:0"/>
					<stop  offset="1" style="stop-color:#AFD8CA"/>
				</linearGradient>
				<polygon style="opacity:0.53;fill:url(#SVGID_00000057122537086325733290000017440383487999233687_);" points="203.756,143.084 
					199.25,153.139 195.214,148.112 				"/>
				
					<linearGradient id="SVGID_00000114768859000455691350000002763867725602507176_" gradientUnits="userSpaceOnUse" x1="235.9144" y1="202.9618" x2="220.3663" y2="158.3107">
					<stop  offset="0" style="stop-color:#FFFFFF;stop-opacity:0"/>
					<stop  offset="1" style="stop-color:#AFD8CA"/>
				</linearGradient>
				<polygon style="opacity:0.53;fill:url(#SVGID_00000114768859000455691350000002763867725602507176_);" points="211.233,141.351 
					218.037,148.112 217.688,141.351 				"/>
				<path style="fill:#FFFFFF;" d="M203.756,143.084l-7.994,8.61c0,0-19.876-33.611-6.088-35.082
					C189.673,116.612,184.2,126.873,203.756,143.084z"/>
				<path style="fill:#FFFFFF;" d="M211.233,141.351l7.253,3.989c0,0,0-23.51-7.974-26.244
					C210.512,119.096,216.039,131.556,211.233,141.351z"/>
				<path style="fill:#F95850;" d="M189.557,90.447c0,0,3.215-5.463,0.674-15.276c0,0,9.269,8.725,8.97-6.076
					c0,0,12.608,7.002,27.159,3.613c14.551-3.389,2.682-18.796-27.109-14.751c0,0-19.335,1.852-15.05,12.637
					c0,0-10.251,1.162,2.108,16.275l0.559,0.194C186.867,87.063,187.837,89.225,189.557,90.447z"/>
				<path style="fill:none;stroke:#F95850;stroke-width:0.5;stroke-linecap:round;stroke-linejoin:round;stroke-miterlimit:10;" d="
					M181.41,63.414c0,0,0.374,6.609,4.261,8.126c0,0-4.186-2.937-6.728,0"/>
				<path style="fill:none;stroke:#F95850;stroke-width:0.5;stroke-linecap:round;stroke-linejoin:round;stroke-miterlimit:10;" d="
					M198.303,67.477c0,0,3.065,3.786,1.495,9.168"/>
				<path style="fill:none;stroke:#F95850;stroke-width:0.5;stroke-linecap:round;stroke-linejoin:round;stroke-miterlimit:10;" d="
					M214.563,73.199c0,0,18.696,3.414,21.115-6.786"/>
				<path style="fill:#F95850;" d="M225.135,92.085c0,0-3.61-1.173-10.96-0.645c-5.566,0.4-14.415,5.517-20.203,3.515
					c-3.709-2.169-3.608-6.505-3.608-6.505l-1.33-0.182c0,0,0.221,0.951,0.521,2.217c-0.038,0.817-1.291,31.069,24.395,24.526
					C234.943,109.664,225.135,92.085,225.135,92.085z"/>
				<path style="fill:#FFFFFF;" d="M211.506,94.971c0,0,2.78,0.702,4.887,0.374C216.393,95.345,213.672,104.8,211.506,94.971z"/>
				
					<linearGradient id="SVGID_00000077297498859938453100000013423621863515809674_" gradientUnits="userSpaceOnUse" x1="249.8729" y1="157.2307" x2="162.5644" y2="260.3862">
					<stop  offset="0" style="stop-color:#FFFFFF;stop-opacity:0"/>
					<stop  offset="1" style="stop-color:#AFD8CA"/>
				</linearGradient>
				<path style="opacity:0.53;fill:url(#SVGID_00000077297498859938453100000013423621863515809674_);" d="M231.144,238.757
					c-29.376,0-54.817-19.47-67.313-47.885c-0.788,19.905-1.786,50.722-0.501,52.815c2.857,4.652,67.557,2.478,71.115-0.241
					c0.321-0.09,0.422-1.856,0.385-4.798C233.608,238.717,232.38,238.757,231.144,238.757z"/>
				
					<linearGradient id="SVGID_00000145047582124448333580000003729669683762762385_" gradientUnits="userSpaceOnUse" x1="249.8729" y1="157.2307" x2="162.5644" y2="260.3862">
					<stop  offset="0" style="stop-color:#FFFFFF;stop-opacity:0"/>
					<stop  offset="1" style="stop-color:#AFD8CA"/>
				</linearGradient>
				<path style="opacity:0.53;fill:url(#SVGID_00000145047582124448333580000003729669683762762385_);" d="M231.144,238.757
					c-29.376,0-54.817-19.47-67.313-47.885c-0.788,19.905-1.786,50.722-0.501,52.815c2.857,4.652,67.557,2.478,71.115-0.241
					c0.321-0.09,0.422-1.856,0.385-4.798C233.608,238.717,232.38,238.757,231.144,238.757z"/>
				<path style="fill:#60C6A4;" d="M162.944,125.081c0,0-2.959,1.078-7.892,4.881c-4.934,3.803-21.678,30.306-24.219,31.352
					c-2.541,1.047-16.993-24.235-27.109-21.714c-7.047,1.756-7.575,7.063-5.183,12.146c2.392,5.083,23.322,34.983,33.04,36.03
					c9.718,1.046,36.03-31.586,36.03-31.586"/>
				<path style="fill:none;stroke:#FCE6E6;stroke-width:0.25;stroke-linecap:round;stroke-miterlimit:10;" d="M129.726,160.245
					c0,0,2.253,2.198,4.034,4.999"/>
				<path style="fill:none;stroke:#FCE6E6;stroke-width:0.25;stroke-linecap:round;stroke-miterlimit:10;" d="M129.726,160.245
					c0,0,3.247,2.606,5.941,6.053"/>
				
					<linearGradient id="SVGID_00000175305819681530863020000000149344800387642252_" gradientUnits="userSpaceOnUse" x1="209.3859" y1="190.8281" x2="168.8714" y2="161.6756">
					<stop  offset="0" style="stop-color:#FFFFFF;stop-opacity:0"/>
					<stop  offset="1" style="stop-color:#AFD8CA"/>
				</linearGradient>
				<path style="opacity:0.53;fill:url(#SVGID_00000175305819681530863020000000149344800387642252_);" d="M162.839,161.88
					l5.37-7.615c0,0-3.144,7.079-5.029,10.248L162.839,161.88z"/>
				
					<linearGradient id="SVGID_00000043427852718266004000000002787156704762221977_" gradientUnits="userSpaceOnUse" x1="209.3859" y1="190.8281" x2="168.8714" y2="161.6756">
					<stop  offset="0" style="stop-color:#FFFFFF;stop-opacity:0"/>
					<stop  offset="1" style="stop-color:#AFD8CA"/>
				</linearGradient>
				<path style="opacity:0.53;fill:url(#SVGID_00000043427852718266004000000002787156704762221977_);" d="M162.839,161.88
					l5.37-7.615c0,0-3.144,7.079-5.029,10.248L162.839,161.88z"/>
				
					<linearGradient id="SVGID_00000032641696166838048920000007391817617710530482_" gradientUnits="userSpaceOnUse" x1="135.4359" y1="169.1614" x2="116.9975" y2="155.5071">
					<stop  offset="0" style="stop-color:#FFFFFF;stop-opacity:0"/>
					<stop  offset="1" style="stop-color:#AFD8CA"/>
				</linearGradient>
				<path style="opacity:0.53;fill:url(#SVGID_00000032641696166838048920000007391817617710530482_);" d="M113.419,149.102
					c-0.973,3.472-5.414,5.263-9.919,4c-4.505-1.262-7.369-5.1-6.396-8.572c0.973-3.472,5.414-5.263,9.919-4
					C111.528,141.792,114.392,145.63,113.419,149.102z"/>
				
					<linearGradient id="SVGID_00000129196674910641933430000014704597618302621058_" gradientUnits="userSpaceOnUse" x1="135.4359" y1="169.1614" x2="116.9975" y2="155.5071">
					<stop  offset="0" style="stop-color:#FFFFFF;stop-opacity:0"/>
					<stop  offset="1" style="stop-color:#AFD8CA"/>
				</linearGradient>
				<path style="opacity:0.53;fill:url(#SVGID_00000129196674910641933430000014704597618302621058_);" d="M113.419,149.102
					c-0.973,3.472-5.414,5.263-9.919,4c-4.505-1.262-7.369-5.1-6.396-8.572c0.973-3.472,5.414-5.263,9.919-4
					C111.528,141.792,114.392,145.63,113.419,149.102z"/>
				<polygon style="fill:#EA433F;" points="59.875,186.621 142.54,184.704 159.252,292.781 57.297,300.242 				"/>
				
					<linearGradient id="SVGID_00000140714461556577720340000016577761256041491129_" gradientUnits="userSpaceOnUse" x1="259.3644" y1="426.9242" x2="51.2598" y2="170.9792">
					<stop  offset="0" style="stop-color:#FFFFFF;stop-opacity:0"/>
					<stop  offset="1" style="stop-color:#FF765F"/>
				</linearGradient>
				<polygon style="opacity:0.47;fill:url(#SVGID_00000140714461556577720340000016577761256041491129_);" points="58.559,244.621 
					57.936,272.078 140.169,276.839 138.097,184.892 137.454,184.822 67.564,186.443 				"/>
				<path style="fill:none;stroke:#F2D4D3;stroke-miterlimit:10;" d="M85.784,182.003c0,0-0.257-35.67,11.134-36.074
					c11.391-0.404,18.268,5.178,12.089,40.26"/>
				<path style="fill:none;stroke:#F2D4D3;stroke-miterlimit:10;" d="M89.15,183.101c0,0-2.738-35.566,8.597-36.762
					c11.335-1.195,18.584,3.894,14.861,39.322"/>
				<path style="fill:none;stroke:#F2D4D3;stroke-miterlimit:10;" d="M91.455,189.891c0,0-4.984-41.256,6.279-43.02
					c11.263-1.764,18.836,3.914,17.347,45.222"/>
				<polygon style="fill:#FC5959;" points="65.891,173.421 135.026,180.896 137.099,272.843 51.271,267.874 				"/>
				<path style="fill:#FCB9A7;" d="M112.814,145.218c0,0-4.592-6.943-10.975-5.992c-6.383,0.952-9.519,4.368-10.023,5.488
					c-0.504,1.12,3.08,6.607,4.2,6.943c1.12,0.336,3.472,0,3.472,0s2.136,1.064,2.804,1.064c0.668,0,3.356-1.4,5.54-3.248
					c0,0,3.808,1.512,5.6,1.456C115.222,150.874,114.461,147.217,112.814,145.218z"/>
				<polygon style="fill:#AF2525;" points="57.297,300.242 75.817,301.604 155.55,296.421 159.252,292.781 				"/>
				<polygon style="fill:#A01F1F;" points="51.271,267.874 54.737,269.661 135.916,274.295 137.099,272.843 				"/>
				<polygon style="fill:#EA433F;" points="70.195,189.249 66.02,224.166 126.822,232.826 128.51,194.941 				"/>
				<text transform="matrix(0.9944 0.106 -0.106 0.9944 72.6021 202.5733)"><tspan x="0" y="0" style="fill:#FFFFFF; font-family:'Oswald-Medium'; font-size:19.8132px;">SUPER</tspan><tspan x="-0.486" y="28.069" style="fill:#FFFFFF; font-family:'Oswald-Medium'; font-size:28.0687px;">SALE</tspan></text>
				<path style="fill:none;stroke:#594F59;stroke-width:0.75;stroke-miterlimit:10;" d="M79.596,174.903
					c0,0,0.242-19.031-7.168-15.514c-7.069,3.355,2.007,18.909,11.362,43.744c10.963,29.103-21.528,38.571-30.598,10.365"/>
				<path style="fill:#F2D4D3;" d="M69.831,236.74c1.045,0.243,2.084,0.362,3.107,0.362c3.666,0,7.1-1.538,9.728-4.434
					c2.488-2.741,7.705-10.805,2.438-26.426c-2.097-6.217-4.207-12.064-6.069-17.223c-1.993-5.524-3.78-10.476-5.14-14.733
					l-0.575-0.062c1.372,4.326,3.188,9.359,5.215,14.975c1.861,5.157,3.971,11.001,6.065,17.213
					c5.178,15.355,0.098,23.227-2.328,25.9c-3.227,3.556-7.722,4.977-12.32,3.911c-2.539-0.59-7.957-2.722-12.181-10.339
					l-0.13,0.842C61.917,234.052,67.284,236.148,69.831,236.74z"/>
				<path style="fill:#EA433F;" d="M32.214,192.255l14.899,25.115c0.173,0.292,0.525,0.425,0.848,0.321l12.518-4.031
					c0.386-0.124,0.596-0.541,0.465-0.926L49.72,179.682c-0.158-0.466-0.724-0.643-1.12-0.351L32.407,191.3
					C32.107,191.522,32.023,191.935,32.214,192.255z"/>
				<g>
					
						<text transform="matrix(0.463 0.8863 -0.8863 0.463 36.7092 190.0075)" style="fill:#FFFFFF; font-family:'Oswald-Medium'; font-size:11.7629px;">-50%</text>
				</g>
				<path style="fill:#FCB9A7;" d="M303.257,149.412c0,0,5.531,3.987,7.126,3.139s-1.146-7.126-1.146-7.126L303.257,149.412z"/>
			</g>
			<path style="fill:#E5E1E1;" d="M99.252,456.218h308.088C407.339,456.218,184.221,466.336,99.252,456.218z"/>
			<polygon style="fill:#FFFFFF;" points="297.549,203.124 304.835,223.601 349.544,213.363 342.599,186.931 			"/>
		</g>
	</g>
</g>
</svg>
